<svg width="100%" height="100%" viewBox="0 0 100 100" fill="none" xmlns="http://www.w3.org/2000/svg">
<path d="M50.0008 10.8509C59.8774 10.8509 70.708 15.3255 77.6918 22.3092C84.6756 29.293 89.1501 40.1237 89.1501 50.0002C89.1501 59.8768 85.2267 71.2585 78.2429 78.2423C71.2591 85.2261 59.8774 89.1495 50.0008 89.1495C40.1243 89.1495 28.7425 85.2261 21.7587 78.2423C14.775 71.2585 10.8515 59.8768 10.8515 50.0002C10.8515 40.1237 14.775 28.7419 21.7587 21.7581C28.7425 14.7743 40.1243 10.8509 50.0008 10.8509ZM50.0008 95.8335C62.1566 95.8335 73.8145 91.0047 82.4099 82.4093C91.0053 73.8139 95.8342 62.156 95.8342 50.0002C95.8342 37.8444 91.0053 26.1866 82.4099 17.5911C73.8145 8.99573 62.1566 4.16687 50.0008 4.16687C37.8451 4.16687 26.1872 8.99573 17.5918 17.5911C8.99634 26.1866 4.16748 37.8444 4.16748 50.0002C4.16748 62.156 8.99634 73.8139 17.5918 82.4093C26.1872 91.0047 37.8451 95.8335 50.0008 95.8335ZM50.0008 68.1426C54.3156 68.1426 60.0388 70.2552 62.3842 73.5137C63.7628 75.4473 64.5386 75.8769 66.4722 74.4984C68.4058 73.1198 68.8354 72.344 67.4569 70.4104C63.5718 65.0035 57.1981 61.4585 50.0008 61.4585C42.8036 61.4585 36.4478 65.0035 32.5448 70.4104C31.1662 72.344 31.5959 73.1198 33.5295 74.4984C35.4631 75.8769 36.2389 75.4473 37.6175 73.5137C39.9628 70.2552 45.686 68.1426 50.0008 68.1426ZM35.6779 52.8648C38.8468 52.8648 41.4071 50.3046 41.4071 47.1356V47.0819L43.1437 47.6548C45.0236 48.2815 47.0467 47.2609 47.6733 45.399C48.3 43.537 47.2795 41.496 45.4175 40.8693L28.23 35.1402C26.3501 34.5136 24.327 35.5341 23.7004 37.396C23.0737 39.258 24.0942 41.299 25.9562 41.9257L31.1304 43.6444C30.3963 44.6112 29.9487 45.8107 29.9487 47.1177C29.9487 50.2867 32.509 52.8469 35.6779 52.8469V52.8648ZM70.0529 47.1356C70.0529 45.8287 69.6232 44.6291 68.8713 43.6623L74.0454 41.9436C75.9253 41.3169 76.9279 39.2938 76.3013 37.4139C75.6746 35.5341 73.6515 34.5315 71.7717 35.1581L54.5842 40.8873C52.7043 41.5139 51.7017 43.537 52.3283 45.4169C52.9549 47.2968 54.978 48.2994 56.8579 47.6727L58.5946 47.0998V47.1535C58.5946 50.3225 61.1548 52.8827 64.3237 52.8827C67.4927 52.8827 70.0529 50.3225 70.0529 47.1535V47.1356Z" fill="currentColor"/>
</svg>
