<svg width="100%" height="100%" viewBox="0 0 100 100" fill="none" xmlns="http://www.w3.org/2000/svg">
<path d="M91.6658 50.0004C91.6658 73.0129 73.0117 91.6671 49.9992 91.6671C26.9867 91.6671 8.33252 73.0129 8.33252 50.0004C8.33252 26.9879 26.9867 8.33374 49.9992 8.33374C73.0117 8.33374 91.6658 26.9879 91.6658 50.0004Z" stroke="black" stroke-width="6.25" stroke-linecap="round" stroke-linejoin="round"/>
<path d="M35.4159 45.8341C34.8633 45.8341 34.3334 45.6147 33.9427 45.224C33.552 44.8333 33.3325 44.3033 33.3325 43.7508C33.3325 43.1983 33.552 42.6684 33.9427 42.2777C34.3334 41.887 34.8633 41.6675 35.4159 41.6675C35.9684 41.6675 36.4983 41.887 36.889 42.2777C37.2797 42.6684 37.4992 43.1983 37.4992 43.7508C37.4992 44.3033 37.2797 44.8333 36.889 45.224C36.4983 45.6147 35.9684 45.8341 35.4159 45.8341ZM64.5825 45.8341C64.03 45.8341 63.5001 45.6147 63.1094 45.224C62.7187 44.8333 62.4992 44.3033 62.4992 43.7508C62.4992 43.1983 62.7187 42.6684 63.1094 42.2777C63.5001 41.887 64.03 41.6675 64.5825 41.6675C65.1351 41.6675 65.665 41.887 66.0557 42.2777C66.4464 42.6684 66.6659 43.1983 66.6659 43.7508C66.6659 44.3033 66.4464 44.8333 66.0557 45.224C65.665 45.6147 65.1351 45.8341 64.5825 45.8341Z" fill="currentColor" stroke="currentColor" stroke-width="6.25" stroke-linecap="round" stroke-linejoin="round"/>
<path fill-rule="evenodd" clip-rule="evenodd" d="M50.6928 58.3337C41.9348 58.3337 35.415 63.6827 35.415 71.8754C35.415 73.5657 35.415 75.6948 38.54 76.3893C41.665 77.0837 46.2775 77.0837 50.6928 77.0837C55.1081 77.0837 60.4149 77.0837 63.54 76.3893C66.6651 75.6948 66.665 73.5695 66.665 71.8754C66.665 63.6827 59.4508 58.3337 50.6928 58.3337ZM61.4567 70.4865C61.4567 66.0101 55.6314 62.8476 50.6928 62.8476C45.7543 62.8476 40.6234 66.3574 40.6234 70.8337C40.6234 70.8337 40.6234 71.8754 41.6649 72.2226C43.7483 72.5698 46.6633 72.5698 50.6928 72.5698C54.7223 72.5698 58.3316 72.5698 60.4149 72.2226C61.4567 71.8754 61.4567 70.8337 61.4567 70.4865Z" fill="black"/>
<path d="M23.9575 9.37581V19.7925V30.2091M33.3325 4.16748V22.9175" stroke="black" stroke-width="6.25" stroke-linecap="round"/>
<path d="M61.4591 36.4581L73.9591 42.7081M38.5425 36.4581L26.0425 42.7081" stroke="black" stroke-width="5.20833" stroke-linecap="round"/>
</svg>
