<svg width="100%" height="100%" viewBox="0 0 100 100" fill="none" xmlns="http://www.w3.org/2000/svg">
<path fill-rule="evenodd" clip-rule="evenodd" d="M40.7417 87.4999H59.2583C72.2625 87.4999 78.7667 87.4999 83.4375 84.4374C85.4534 83.1172 87.1893 81.4124 88.5458 79.4208C91.6667 74.8374 91.6667 68.4499 91.6667 55.6833C91.6667 42.9166 91.6667 36.5291 88.5458 31.9458C87.1893 29.9541 85.4534 28.2493 83.4375 26.9291C80.4375 24.9583 76.6792 24.2541 70.925 24.0041C68.1792 24.0041 65.8167 21.9624 65.2792 19.3166C64.8684 17.3785 63.8011 15.6417 62.2577 14.3997C60.7143 13.1577 58.7894 12.4866 56.8083 12.4999H43.1917C39.075 12.4999 35.5292 15.3541 34.7208 19.3166C34.1833 21.9624 31.8208 24.0041 29.075 24.0041C23.325 24.2541 19.5667 24.9624 16.5625 26.9291C14.5481 28.2498 12.8137 29.9545 11.4583 31.9458C8.33334 36.5291 8.33334 42.9124 8.33334 55.6833C8.33334 68.4541 8.33334 74.8333 11.4542 79.4208C12.8042 81.4041 14.5375 83.1082 16.5625 84.4374C21.2333 87.4999 27.7375 87.4999 40.7417 87.4999ZM50 38.6374C40.4125 38.6374 32.6375 46.2666 32.6375 55.6791C32.6375 65.0916 40.4167 72.7332 50 72.7332C59.5833 72.7332 67.3625 65.0999 67.3625 55.6874C67.3625 46.2749 59.5833 38.6374 50 38.6374ZM50 45.4541C44.25 45.4541 39.5833 50.0333 39.5833 55.6833C39.5833 61.3291 44.25 65.9082 50 65.9082C55.75 65.9082 60.4167 61.3291 60.4167 55.6833C60.4167 50.0374 55.75 45.4541 50 45.4541ZM69.675 42.0457C69.675 40.1624 71.2292 38.6374 73.15 38.6374H77.775C79.6917 38.6374 81.25 40.1624 81.25 42.0457C81.2412 42.9578 80.8707 43.8291 80.2199 44.4682C79.5691 45.1073 78.6913 45.4619 77.7792 45.4541H73.15C72.698 45.4585 72.2496 45.3738 71.8304 45.2049C71.4111 45.036 71.0293 44.7862 70.7066 44.4697C70.3839 44.1532 70.1267 43.7762 69.9497 43.3603C69.7727 42.9444 69.6794 42.4977 69.675 42.0457Z" fill="currentColor"/>
</svg>
