<svg width="100%" height="100%" viewBox="0 0 357 357" fill="none" xmlns="http://www.w3.org/2000/svg">
<rect x="3" y="3" width="350.4" height="350.4" rx="175.2" stroke="currentColor" stroke-width="6" stroke-dasharray="12 12"/>
<g clip-path="url(#clip0_37_487)">
<path d="M156.772 154.129C155.593 154.129 154.629 155.093 154.629 156.272V199.129C154.629 200.307 155.593 201.272 156.772 201.272H199.629C200.807 201.272 201.772 200.307 201.772 199.129V156.272C201.772 155.093 200.807 154.129 199.629 154.129H156.772ZM148.2 156.272C148.2 151.544 152.044 147.7 156.772 147.7H199.629C204.356 147.7 208.2 151.544 208.2 156.272V199.129C208.2 203.856 204.356 207.7 199.629 207.7H156.772C152.044 207.7 148.2 203.856 148.2 199.129V156.272ZM165.343 160.557C166.48 160.557 167.57 161.009 168.374 161.813C169.177 162.616 169.629 163.706 169.629 164.843C169.629 165.98 169.177 167.07 168.374 167.874C167.57 168.677 166.48 169.129 165.343 169.129C164.206 169.129 163.116 168.677 162.313 167.874C161.509 167.07 161.057 165.98 161.057 164.843C161.057 163.706 161.509 162.616 162.313 161.813C163.116 161.009 164.206 160.557 165.343 160.557ZM183.557 170.2C184.696 170.2 185.754 170.803 186.33 171.781L197.044 189.995C197.633 190.986 197.633 192.218 197.057 193.223C196.481 194.227 195.423 194.843 194.272 194.843H162.129C160.937 194.843 159.825 194.173 159.276 193.115C158.727 192.057 158.807 190.772 159.49 189.794L166.99 179.08C167.593 178.223 168.571 177.714 169.629 177.714C170.687 177.714 171.664 178.223 172.267 179.08L174.571 182.374L180.798 171.794C181.374 170.816 182.432 170.214 183.571 170.214L183.557 170.2Z" fill="currentColor"/>
</g>
<defs>
<clipPath id="clip0_37_487">
<rect width="60" height="60" fill="white" transform="translate(148.2 147.7)"/>
</clipPath>
</defs>
</svg>
