<svg width="100%" height="100%" viewBox="0 0 100 100" fill="none" xmlns="http://www.w3.org/2000/svg">
<path d="M49.9992 91.6665C73.011 91.6665 91.6658 73.0117 91.6658 49.9998C91.6658 26.9879 73.011 8.33313 49.9992 8.33313C26.9873 8.33313 8.33252 26.9879 8.33252 49.9998C8.33252 73.0117 26.9873 91.6665 49.9992 91.6665Z" stroke="black" stroke-width="6.25" stroke-linecap="round"/>
<path d="M39.1748 56.2494C40.272 58.1495 41.8499 59.7273 43.7501 60.8243C45.6503 61.9213 47.8057 62.4988 49.9998 62.4988C52.1939 62.4988 54.3494 61.9213 56.2495 60.8243C58.1497 59.7273 59.7277 58.1495 60.8248 56.2494" stroke="black" stroke-width="6.25" stroke-linecap="round"/>
<path d="M37.4992 32.8119H33.3325C30.7437 32.8119 28.645 34.9106 28.645 37.4994C28.645 40.0882 30.7437 42.1869 33.3325 42.1869H37.4992C40.088 42.1869 42.1867 40.0882 42.1867 37.4994C42.1867 34.9106 40.088 32.8119 37.4992 32.8119Z" fill="black" stroke="black" stroke-width="1.04167" stroke-linecap="round"/>
<path d="M66.6667 32.8119H62.5C59.9112 32.8119 57.8125 34.9106 57.8125 37.4994C57.8125 40.0882 59.9112 42.1869 62.5 42.1869H66.6667C69.2555 42.1869 71.3542 40.0882 71.3542 37.4994C71.3542 34.9106 69.2555 32.8119 66.6667 32.8119Z" fill="black" stroke="black" stroke-width="1.04167" stroke-linecap="round"/>
</svg>
