<svg width="100%" height="100%" viewBox="0 0 100 100" fill="none" xmlns="http://www.w3.org/2000/svg">
<path d="M50 6.25004C41.5938 6.25004 33.1875 8.84379 26.0875 14.05C19.6331 18.7692 14.7412 25.3144 12.0429 32.841C9.3447 40.3675 8.96401 48.53 10.95 56.275C10.7458 56.4667 10.5458 56.6667 10.35 56.875C6.1625 61.3563 5.14375 68.35 7.45625 76.975C9.76875 85.6 14.1437 91.15 20.0187 92.9438C25.8937 94.7375 31.6562 93.1938 37.6437 91.5875C38.2389 91.4293 38.7971 91.1554 39.2863 90.7813C39.7756 90.4073 40.1863 89.9406 40.4951 89.4077C40.8039 88.8749 41.0046 88.2865 41.0859 87.676C41.1672 87.0656 41.1274 86.4451 40.9688 85.85L36.5 69.2L32.0437 52.55C31.7863 51.5941 31.2328 50.7442 30.4626 50.1222C29.6924 49.5001 28.745 49.138 27.7562 49.0875C27.2679 49.0685 26.7793 49.1211 26.3062 49.2438C23.975 49.8688 21.6687 50.4875 19.4812 51.2688C18.5577 45.687 19.205 39.9583 21.3507 34.7232C23.4964 29.4881 27.0559 24.9531 31.6312 21.625C36.9627 17.7275 43.3958 15.6268 50 15.6268C56.6042 15.6268 63.0373 17.7275 68.3688 21.625C72.9452 24.9536 76.5054 29.4897 78.6511 34.726C80.7968 39.9622 81.4435 45.6922 80.5188 51.275C78.2722 50.5077 75.9953 49.8322 73.6937 49.25C73.2206 49.1274 72.7321 49.0747 72.2438 49.0938C71.255 49.1442 70.3076 49.5064 69.5374 50.1284C68.7672 50.7504 68.2137 51.6003 67.9562 52.5563L63.5 69.2063L59.0312 85.8563C58.8726 86.4513 58.8328 87.0718 58.9141 87.6823C58.9954 88.2927 59.1961 88.8812 59.5049 89.414C59.8137 89.9468 60.2244 90.4136 60.7137 90.7876C61.2029 91.1616 61.7611 91.4356 62.3563 91.5938C68.3438 93.2 74.1062 94.7438 79.9812 92.95C85.8562 91.1563 90.2312 85.6125 92.5437 76.9813C94.8562 68.3563 93.8375 61.3625 89.65 56.8813C89.4542 56.673 89.2542 56.473 89.05 56.2813C91.036 48.5363 90.6553 40.3738 87.9571 32.8472C85.2588 25.3207 80.3669 18.7755 73.9125 14.0563C66.9743 8.97818 58.598 6.24375 50 6.25004Z" fill="currentColor"/>
</svg>
