<svg width="100%" height="100%" viewBox="0 0 100 100" fill="none" xmlns="http://www.w3.org/2000/svg">
<path d="M20.2381 8.22482C13.6719 8.22482 8.33333 13.5773 8.33333 20.1606V79.8394C8.33333 86.4227 13.6719 91.7752 20.2381 91.7752H79.7619C86.3281 91.7752 91.6667 86.4227 91.6667 79.8394V20.1606C91.6667 13.5773 86.3281 8.22482 79.7619 8.22482H20.2381ZM32.1429 23.1445C34.5109 23.1445 36.7819 24.0877 38.4563 25.7665C40.1307 27.4452 41.0714 29.7222 41.0714 32.0963C41.0714 34.4705 40.1307 36.7475 38.4563 38.4262C36.7819 40.105 34.5109 41.0482 32.1429 41.0482C29.7748 41.0482 27.5038 40.105 25.8294 38.4262C24.155 36.7475 23.2143 34.4705 23.2143 32.0963C23.2143 29.7222 24.155 27.4452 25.8294 25.7665C27.5038 24.0877 29.7748 23.1445 32.1429 23.1445ZM58.9286 44.0321C60.4911 44.0321 61.9234 44.8527 62.7418 46.1768L79.1109 73.0323C79.9479 74.4124 79.9851 76.1468 79.2039 77.5641C78.4226 78.9815 76.9159 79.8394 75.2976 79.8394H24.7024C23.0469 79.8394 21.503 78.9069 20.7403 77.4336C19.9777 75.9603 20.0893 74.1699 21.0379 72.8085L31.4546 57.8888C32.2917 56.6952 33.6495 55.9865 35.119 55.9865C36.5885 55.9865 37.9464 56.6952 38.7835 57.8888L43.6942 64.9384L55.1153 46.1955C55.9338 44.8713 57.3661 44.0508 58.9286 44.0508V44.0321Z" fill="currentColor"/>
</svg>
