<svg width="100%" height="100%" viewBox="0 0 100 100" fill="none" xmlns="http://www.w3.org/2000/svg">
<path d="M37.5 87.5H62.5M75 40.625V46.875C75 60.625 63.75 71.875 50 71.875M50 71.875C36.25 71.875 25 60.625 25 46.875V40.625M50 71.875V87.5" stroke="currentColor" stroke-width="6.25" stroke-linecap="round" stroke-linejoin="round"/>
<path d="M50 62.5C47.9376 62.4952 45.8971 62.076 43.9998 61.2674C42.1025 60.4589 40.387 59.2773 38.9551 57.793C36.0239 54.8366 34.378 50.8428 34.375 46.6797V25C34.367 22.9458 34.7657 20.9104 35.5481 19.0111C36.3305 17.1118 37.4811 15.3861 38.9336 13.9336C40.3861 12.4811 42.1118 11.3305 44.0111 10.5481C45.9104 9.76568 47.9458 9.36699 50 9.375C58.7617 9.375 65.625 16.2383 65.625 25V46.6797C65.625 55.4023 58.6152 62.5 50 62.5Z" fill="currentColor"/>
</svg>
