<svg width="100%" height="100%" viewBox="0 0 100 100" fill="none" xmlns="http://www.w3.org/2000/svg">
<path d="M50.9919 35.0373C51.3611 37.2159 50.85 39.4519 49.571 41.2538C48.2919 43.0556 46.3495 44.2756 44.171 44.6456L18.7377 48.9665C17.6587 49.1499 16.5541 49.119 15.487 48.8755C14.4199 48.6319 13.4112 48.1806 12.5186 47.5472C11.6259 46.9138 10.8668 46.1108 10.2846 45.184C9.70234 44.2571 9.30838 43.2247 9.12521 42.1456L4.97521 17.6956C4.60464 15.517 5.11461 13.2804 6.39295 11.4778C7.67129 9.6751 9.61331 8.45403 11.7919 8.08312L37.2294 3.76229C38.3084 3.57884 39.413 3.60976 40.4801 3.85328C41.5472 4.0968 42.5559 4.54814 43.4485 5.18154C44.3412 5.81493 45.1003 6.61797 45.6825 7.54478C46.2647 8.4716 46.6587 9.50403 46.8419 10.5831L50.9919 35.0373ZM82.2377 92.0165C81.1779 93.9558 79.3911 95.3947 77.2704 96.0167C75.1497 96.6387 72.8688 96.3928 70.9294 95.3331L48.2877 82.9706C47.3271 82.4462 46.4792 81.7377 45.7924 80.8856C45.1056 80.0334 44.5934 79.0544 44.2851 78.0043C43.9767 76.9542 43.8782 75.8536 43.9952 74.7655C44.1121 73.6773 44.4423 72.6228 44.9669 71.6623L56.8544 49.8915C57.9142 47.9521 59.701 46.5132 61.8217 45.8912C63.9424 45.2692 66.2233 45.5151 68.1627 46.5748L90.8044 58.9415C91.765 59.4659 92.6129 60.1744 93.2997 61.0265C93.9865 61.8786 94.4987 62.8577 94.807 63.9078C95.1154 64.9579 95.2139 66.0584 95.0969 67.1466C94.9799 68.2348 94.6497 69.2892 94.1252 70.2498L82.2377 92.0165Z" stroke="currentColor" stroke-width="6.25" stroke-linecap="round" stroke-linejoin="round"/>
<path d="M27.9792 28.2584C27.4764 28.2584 26.9942 28.0586 26.6386 27.7031C26.2831 27.3476 26.0834 26.8653 26.0834 26.3625C26.0834 25.8597 26.2831 25.3775 26.6386 25.022C26.9942 24.6664 27.4764 24.4667 27.9792 24.4667M27.9792 28.2584C28.482 28.2584 28.9642 28.0586 29.3198 27.7031C29.6753 27.3476 29.875 26.8653 29.875 26.3625C29.875 25.8597 29.6753 25.3775 29.3198 25.022C28.9642 24.6664 28.482 24.4667 27.9792 24.4667M66.525 64.0334C66.0222 64.0334 65.54 63.8336 65.1845 63.4781C64.8289 63.1226 64.6292 62.6403 64.6292 62.1375C64.6292 61.6347 64.8289 61.1525 65.1845 60.797C65.54 60.4414 66.0222 60.2417 66.525 60.2417M66.525 64.0334C67.0278 64.0334 67.5101 63.8336 67.8656 63.4781C68.2211 63.1226 68.4209 62.6403 68.4209 62.1375C68.4209 61.6347 68.2211 61.1525 67.8656 60.797C67.5101 60.4414 67.0278 60.2417 66.525 60.2417M72.3834 80.8417C71.8806 80.8417 71.3984 80.642 71.0428 80.2864C70.6873 79.9309 70.4875 79.4487 70.4875 78.9459C70.4875 78.4431 70.6873 77.9609 71.0428 77.6053C71.3984 77.2498 71.8806 77.05 72.3834 77.05M72.3834 80.8417C72.8862 80.8417 73.3684 80.642 73.7239 80.2864C74.0795 79.9309 74.2792 79.4487 74.2792 78.9459C74.2792 78.4431 74.0795 77.9609 73.7239 77.6053C73.3684 77.2498 72.8862 77.05 72.3834 77.05" stroke="currentColor" stroke-width="6.25" stroke-linecap="round" stroke-linejoin="round"/>
</svg>
