<svg width="100%" height="100%" viewBox="0 0 100 100" fill="none" xmlns="http://www.w3.org/2000/svg">
<path d="M49.5667 75C49.5667 75.8288 49.2374 76.6237 48.6514 77.2097C48.0653 77.7958 47.2705 78.125 46.4417 78.125C30.6417 78.125 17.7083 65.6042 17.7083 50C17.7083 34.3958 30.6417 21.875 46.4417 21.875C59.3792 21.875 70.3958 30.2708 73.9625 41.8792L76.475 37.6292C76.8966 36.9153 77.5845 36.3981 78.3874 36.1914C79.1903 35.9848 80.0424 36.1055 80.7563 36.5271C81.4701 36.9487 81.9873 37.6366 82.194 38.4395C82.4007 39.2423 82.2799 40.0945 81.8583 40.8083L75.0667 52.2875C74.6508 52.9917 73.9754 53.5048 73.1855 53.7167C72.3956 53.9286 71.5542 53.8223 70.8417 53.4208L59.0833 46.7917C58.7258 46.59 58.4114 46.3199 58.1582 45.9968C57.905 45.6737 57.7179 45.3039 57.6077 44.9084C57.4974 44.513 57.4661 44.0997 57.5155 43.6922C57.565 43.2847 57.6942 42.8909 57.8958 42.5333C58.0975 42.1758 58.3676 41.8614 58.6907 41.6082C59.0138 41.355 59.3836 41.1679 59.7791 41.0577C60.1745 40.9474 60.5878 40.9161 60.9953 40.9655C61.4028 41.015 61.7966 41.1442 62.1542 41.3458L68.2875 44.8042C65.8958 35.2708 57.075 28.125 46.4458 28.125C33.9542 28.125 23.9583 37.9875 23.9583 50C23.9583 62.0125 33.9542 71.875 46.4417 71.875C47.2705 71.875 48.0653 72.2042 48.6514 72.7903C49.2374 73.3763 49.5667 74.1712 49.5667 75Z" fill="currentColor"/>
</svg>
