<svg width="100%" height="100%" viewBox="0 0 100 100" fill="none" xmlns="http://www.w3.org/2000/svg">
<path d="M41.9864 75.6408C41.9864 75.6408 45.1915 72.4357 49.9992 72.4357C54.8069 72.4357 58.012 75.6408 58.012 75.6408M91.6658 49.9998C91.6658 73.0126 73.012 91.6665 49.9992 91.6665C26.9864 91.6665 8.33252 73.0126 8.33252 49.9998C8.33252 26.987 26.9864 8.33313 49.9992 8.33313C73.012 8.33313 91.6658 26.987 91.6658 49.9998ZM72.4351 56.4101C72.4351 57.2601 72.0974 58.0753 71.4963 58.6764C70.8952 59.2775 70.08 59.6152 69.2299 59.6152C68.3799 59.6152 67.5647 59.2775 66.9636 58.6764C66.3625 58.0753 66.0248 57.2601 66.0248 56.4101C66.0248 55.56 66.3625 54.7448 66.9636 54.1437C67.5647 53.5426 68.3799 53.2049 69.2299 53.2049C70.08 53.2049 70.8952 53.5426 71.4963 54.1437C72.0974 54.7448 72.4351 55.56 72.4351 56.4101ZM33.9735 56.4101C33.9735 57.2601 33.6359 58.0753 33.0348 58.6764C32.4337 59.2775 31.6185 59.6152 30.7684 59.6152C29.9184 59.6152 29.1031 59.2775 28.502 58.6764C27.901 58.0753 27.5633 57.2601 27.5633 56.4101C27.5633 55.56 27.901 54.7448 28.502 54.1437C29.1031 53.5426 29.9184 53.2049 30.7684 53.2049C31.6185 53.2049 32.4337 53.5426 33.0348 54.1437C33.6359 54.7448 33.9735 55.56 33.9735 56.4101Z" stroke="black" stroke-width="6.41026" stroke-linecap="round" stroke-linejoin="round"/>
</svg>
