<svg width="100%" height="100%" viewBox="0 0 100 100" fill="none" xmlns="http://www.w3.org/2000/svg">
<path d="M49.9992 91.6665C73.0117 91.6665 91.6658 73.0123 91.6658 49.9998C91.6658 26.9873 73.0117 8.33313 49.9992 8.33313C26.9867 8.33313 8.33252 26.9873 8.33252 49.9998C8.33252 73.0123 26.9867 91.6665 49.9992 91.6665Z" stroke="currentColor" stroke-width="6.25" stroke-linecap="round" stroke-linejoin="round"/>
<path d="M35.4159 37.4992C34.8633 37.4992 34.3334 37.2797 33.9427 36.889C33.552 36.4983 33.3325 35.9684 33.3325 35.4159C33.3325 34.8633 33.552 34.3334 33.9427 33.9427C34.3334 33.552 34.8633 33.3325 35.4159 33.3325C35.9684 33.3325 36.4983 33.552 36.889 33.9427C37.2797 34.3334 37.4992 34.8633 37.4992 35.4159C37.4992 35.9684 37.2797 36.4983 36.889 36.889C36.4983 37.2797 35.9684 37.4992 35.4159 37.4992ZM64.5825 37.4992C64.03 37.4992 63.5001 37.2797 63.1094 36.889C62.7187 36.4983 62.4992 35.9684 62.4992 35.4159C62.4992 34.8633 62.7187 34.3334 63.1094 33.9427C63.5001 33.552 64.03 33.3325 64.5825 33.3325C65.1351 33.3325 65.665 33.552 66.0557 33.9427C66.4464 34.3334 66.6659 34.8633 66.6659 35.4159C66.6659 35.9684 66.4464 36.4983 66.0557 36.889C65.665 37.2797 65.1351 37.4992 64.5825 37.4992Z" fill="currentColor" stroke="currentColor" stroke-width="6.25" stroke-linecap="round" stroke-linejoin="round"/>
<path fill-rule="evenodd" clip-rule="evenodd" d="M50.6928 52.0825C41.9348 52.0825 35.415 59.1676 35.415 67.3603C35.415 71.1339 37.2168 74.4936 40.2761 76.3881C43.3355 78.2825 46.2775 78.8186 50.6928 78.8186C55.1081 78.8186 58.0501 78.2825 61.1095 76.3881C64.1689 74.4936 65.9706 71.1377 65.9706 67.3603C65.9706 59.1676 59.4508 52.0825 50.6928 52.0825ZM60.415 67.3603C60.415 62.8839 55.6314 57.6381 50.6928 57.6381C45.7543 57.6381 40.9706 62.8839 40.9706 67.3603C40.9706 69.9117 42.8359 71.8777 43.4011 72.2214C43.9702 72.5652 46.6633 73.2631 50.6928 73.2631C54.7223 73.2631 57.4192 72.5652 57.9845 72.2214C58.5498 71.8777 60.415 69.9117 60.415 67.3603Z" fill="currentColor"/>
</svg>
